<svg xmlns="http://www.w3.org/2000/svg" version="1.1" xmlns:xlink="http://www.w3.org/1999/xlink" xmlns:svgjs="http://svgjs.dev/svgjs" width="2000" height="1500" viewBox="0 0 2000 1500"><rect width="2000" height="1500" fill="#8c1010"></rect><g transform="matrix(0.75,0,0,0.75,249.090909090909,278.98548387096776)"><svg viewBox="0 0 396 248" data-background-color="#8c1010" preserveAspectRatio="xMidYMid meet" height="1252" width="2000" xmlns="http://www.w3.org/2000/svg" xmlns:xlink="http://www.w3.org/1999/xlink"><g id="tight-bounds" transform="matrix(1,0,0,1,0.2400000000000091,0.4000000000000057)"><svg viewBox="0 0 395.52 247.2" height="247.2" width="395.52"><g><svg></svg></g><g><svg viewBox="0 0 395.52 247.2" height="247.2" width="395.52"><g transform="matrix(1,0,0,1,75.54432,88.2147257952517)"><svg viewBox="0 0 244.43135999999998 70.77054840949661" height="70.77054840949661" width="244.43135999999998"><g><svg viewBox="0 0 244.43135999999998 70.77054840949661" height="70.77054840949661" width="244.43135999999998"><g><svg viewBox="0 0 244.43135999999998 70.77054840949661" height="70.77054840949661" width="244.43135999999998"><g><svg viewBox="0 0 244.43135999999998 70.77054840949661" height="70.77054840949661" width="244.43135999999998"><g id="textblocktransform"><svg viewBox="0 0 244.43135999999998 70.77054840949661" height="70.77054840949661" width="244.43135999999998" id="textblock"><g><svg viewBox="0 0 244.43135999999998 38.17025214149615" height="38.17025214149615" width="244.43135999999998"><g transform="matrix(1,0,0,1,0,0)"><svg width="244.43135999999998" viewBox="3.91 -36.08 294.66999999999996 46.019999999999996" height="38.17025214149615" data-palette-color="#e8c2d3"><path d="M36.43-3.3L36.43-3.3Q36.43-1.56 34.79-1.56L34.79-1.56Q34.25-1.56 33.44-2.44 32.62-3.32 32.28-5.13 31.93-6.93 31.51-15.3 31.08-23.66 30.43-23.66 29.79-23.66 26.38-15.97 22.97-8.28 22.41-7.45L22.41-7.45Q21.31-5.83 20-5.83 18.68-5.83 17.9-7.15 17.11-8.47 15.8-11.94L15.8-11.94Q11.35-23.58 10.4-23.58L10.4-23.58Q9.84-23.58 8.65-14.42 7.47-5.25 7.42-5.03L7.42-5.03Q6.67-2.12 5.47-2.12L5.47-2.12Q3.91-2.12 3.91-3.86L3.91-3.86Q3.91-4.42 4.16-7.7 4.42-10.99 4.49-13.15 4.57-15.31 4.75-18.84 4.93-22.36 4.93-28.69L4.93-28.69Q4.93-30.44 5.54-31.49L5.54-31.49Q6.4-32.98 8.03-32.98 9.67-32.98 11.19-30.82 12.72-28.66 16.3-21.67 19.87-14.67 20.18-14.67 20.48-14.67 23.89-21.15 27.29-27.64 28.42-29.39L28.42-29.39Q30.74-33.01 32.62-33.01L32.62-33.01Q34.94-33.01 35.62-31.07 36.3-29.13 36.3-20.46L36.3-20.46 36.13-10.77Q36.13-8.03 36.28-5.97 36.43-3.91 36.43-3.3ZM47.07-12.35L47.07-12.35 47.07-11.01Q47.07-7.37 48.57-5.33 50.07-3.3 52.59-3.3L52.59-3.3 52.83-3.32Q55.49-3.32 57.03-5.63 58.57-7.93 58.57-12.21L58.57-12.21 58.57-13.28Q58.57-16.6 57.25-18.8 55.93-21 53.56-21L53.56-21 52.85-21Q50.31-21 48.69-18.63 47.07-16.26 47.07-12.35ZM63.77-12.77L63.77-12.77 63.77-11.99Q63.77-6.42 60.74-2.98L60.74-2.98Q59.3-1.32 57.05-0.46 54.81 0.39 52.54 0.39L52.54 0.39 51.73 0.39Q47.41 0.39 44.68-3.1L44.68-3.1Q42.48-5.91 42.48-10.99L42.48-10.99 42.48-12.21Q42.53-12.99 42.53-14.26L42.53-14.26Q42.53-15.45 43.28-17.63L43.28-17.63Q44.77-21.95 48.41-23.56L48.41-23.56Q50.61-24.54 52.71-24.54L52.71-24.54 53.49-24.54Q58.35-24.54 61.33-21.07L61.33-21.07Q63.77-18.24 63.77-12.77ZM73.24-12.35L73.24-12.35 73.24-11.01Q73.24-7.37 74.74-5.33 76.24-3.3 78.75-3.3L78.75-3.3 79-3.32Q81.66-3.32 83.2-5.63 84.74-7.93 84.74-12.21L84.74-12.21 84.74-13.28Q84.74-16.6 83.42-18.8 82.1-21 79.73-21L79.73-21 79.02-21Q76.48-21 74.86-18.63 73.24-16.26 73.24-12.35ZM89.94-12.77L89.94-12.77 89.94-11.99Q89.94-6.42 86.91-2.98L86.91-2.98Q85.47-1.32 83.22-0.46 80.98 0.39 78.71 0.39L78.71 0.39 77.9 0.39Q73.58 0.39 70.84-3.1L70.84-3.1Q68.65-5.91 68.65-10.99L68.65-10.99 68.65-12.21Q68.7-12.99 68.7-14.26L68.7-14.26Q68.7-15.45 69.45-17.63L69.45-17.63Q70.94-21.95 74.58-23.56L74.58-23.56Q76.78-24.54 78.88-24.54L78.88-24.54 79.66-24.54Q84.52-24.54 87.5-21.07L87.5-21.07Q89.94-18.24 89.94-12.77ZM98.33-36.08L98.33-36.08 99.14-36.08Q100.31-36.08 100.72-35.6 101.14-35.11 101.26-34.38 101.38-33.64 101.38-31.1L101.38-31.1 101.26-25.98 101.26-25.12 101.21-23.83 101.21-22.97 101.09-17.77 101.09-16.92 101.07-16.06Q101.07-11.06 101.18-9.85 101.29-8.64 101.95-5.59 102.6-2.54 102.6-2.51L102.6-2.51Q102.6-1.15 102.03-0.6 101.46-0.05 99.97-0.05L99.97-0.05 99.55-0.05Q97.94-0.05 97.18-1.17L97.18-1.17Q96.06-2.81 96.06-5.83L96.06-5.83 96.06-7.4 96.09-7.81 96.14-9.4 96.16-9.81Q96.16-10.23 96.16-10.64L96.16-10.64 96.21-12.35 96.21-13.21 96.26-15.38 96.26-16.24 96.33-18.85 96.33-19.7 96.4-22.73Q96.4-23.17 96.4-23.61L96.4-23.61 96.45-25.32 96.45-26.17 96.5-28.32 96.5-30 96.38-33.18Q96.38-34.72 96.82-35.4 97.26-36.08 98.33-36.08ZM110.2-23.05L110.2-23.05Q111.54-23.05 112.48-21.02 113.42-18.99 114.78-13.31 116.15-7.62 117.57-6.23L117.57-6.23Q118.91-6.23 120.57-10.23L120.57-10.23Q121.5-12.45 122.55-16.97 123.6-21.48 124.26-22.72 124.92-23.95 126.14-23.95L126.14-23.95 126.67-23.95Q128.21-23.95 128.21-22.31L128.21-22.31Q128.21-21.51 126.05-11.87 123.89-2.22 121.96 1.71 120.03 5.64 117.39 7.79 114.74 9.94 112.64 9.94L112.64 9.94 112.27 9.94Q110.66 9.94 110.66 8.89L110.66 8.89Q110.66 8.06 112.99 6.57 115.32 5.08 115.74 4.57L115.74 4.57Q117.23 2.73 117.23 0.73L117.23 0.73Q117.23-0.29 114.87-3.87 112.51-7.45 111.17-10.77L111.17-10.77Q107.9-18.87 107.9-21.46L107.9-21.46Q107.9-23.05 110.2-23.05ZM137.29-6.71L137.29-6.71Q137.29-5.15 138.81-4.1L138.81-4.1Q139.81-3.39 141.64-3.39L141.64-3.39 141.78-3.39Q142.22-3.47 142.71-3.47L142.71-3.47Q144.35-3.47 145.65-4.93 146.96-6.4 146.96-7.74L146.96-7.74 147.01-8.03 147.08-9.33 147.08-10.6Q147.08-11.5 146.48-11.83 145.89-12.16 144.2-12.16L144.2-12.16 143.86-12.16 143.69-12.13 143.37-12.13 142.35-12.06Q141.83-11.99 141.52-11.99L141.52-11.99Q139.76-11.99 138.5-10.89 137.24-9.79 137.24-7.96L137.24-7.96 137.24-7.25Q137.29-6.86 137.29-6.71ZM135.56-20.02L135.56-20.02Q133.95-20.02 133.95-21.78L133.95-21.78Q133.95-23 135.63-23.83L135.63-23.83Q138.32-25.17 141.37-25.17L141.37-25.17 142.54-25.17Q144.98-25.17 147.12-24.29 149.26-23.41 150.4-21.58L150.4-21.58Q151.87-19.26 151.87-11.3L151.87-11.3Q151.87-7.1 152.17-5.1 152.48-3.1 152.48-2.17L152.48-2.17Q152.48-0.34 150.13-0.34L150.13-0.34Q149.08-0.34 148.18-0.98 147.28-1.61 146.74-1.61 146.2-1.61 143.88-0.68 141.56 0.24 139.22 0.24L139.22 0.24Q135.93 0.24 134.06-1.83 132.19-3.91 132.19-6.93L132.19-6.93 132.19-7.5Q132.19-11.21 135.41-13.23L135.41-13.23Q137.51-14.55 141.89-15.04 146.28-15.53 146.52-15.82L146.52-15.82Q146.84-16.19 146.84-17.07L146.84-17.07Q146.84-17.33 146.81-17.63L146.81-17.63Q146.5-21.09 141.93-21.12L141.93-21.12Q140.25-21.12 138.24-20.57 136.24-20.02 135.56-20.02ZM157.07-2.83L157.07-2.83Q157.07-3.66 157.57-4.27 158.07-4.88 158.79-4.88 159.51-4.88 160.87-4.44 162.24-4 163.23-4 164.22-4 165.54-4.98L165.54-4.98Q168.91-7.47 168.91-17.77L168.91-17.77Q168.91-23.85 167.54-28.42L167.54-28.42Q166.95-30.3 166.95-31.65 166.95-33.01 167.95-33.78 168.95-34.55 170.54-34.55L170.54-34.55 171.05-34.55Q172.35-34.55 173.32-32.89L173.32-32.89Q174.74-30.47 174.74-27.88L174.74-27.88 174.74-27.39Q174.74-26.86 174.45-23.54 174.15-20.21 174.15-16.02L174.15-16.02Q174.15-7.13 172.06-3.32L172.06-3.32Q170.88-1.17 168.84 0.11 166.81 1.39 164.15 1.39L164.15 1.39 163.63 1.39Q161.07 1.39 159.07 0.1 157.07-1.2 157.07-2.83ZM184.72-6.71L184.72-6.71Q184.72-5.15 186.24-4.1L186.24-4.1Q187.24-3.39 189.07-3.39L189.07-3.39 189.22-3.39Q189.66-3.47 190.14-3.47L190.14-3.47Q191.78-3.47 193.09-4.93 194.39-6.4 194.39-7.74L194.39-7.74 194.44-8.03 194.51-9.33 194.51-10.6Q194.51-11.5 193.92-11.83 193.32-12.16 191.63-12.16L191.63-12.16 191.29-12.16 191.12-12.13 190.8-12.13 189.78-12.06Q189.26-11.99 188.95-11.99L188.95-11.99Q187.19-11.99 185.93-10.89 184.67-9.79 184.67-7.96L184.67-7.96 184.67-7.25Q184.72-6.86 184.72-6.71ZM182.99-20.02L182.99-20.02Q181.38-20.02 181.38-21.78L181.38-21.78Q181.38-23 183.06-23.83L183.06-23.83Q185.75-25.17 188.8-25.17L188.8-25.17 189.97-25.17Q192.41-25.17 194.55-24.29 196.69-23.41 197.83-21.58L197.83-21.58Q199.3-19.26 199.3-11.3L199.3-11.3Q199.3-7.1 199.6-5.1 199.91-3.1 199.91-2.17L199.91-2.17Q199.91-0.34 197.57-0.34L197.57-0.34Q196.52-0.34 195.61-0.98 194.71-1.61 194.17-1.61 193.63-1.61 191.32-0.68 189 0.24 186.65 0.24L186.65 0.24Q183.36 0.24 181.49-1.83 179.62-3.91 179.62-6.93L179.62-6.93 179.62-7.5Q179.62-11.21 182.84-13.23L182.84-13.23Q184.94-14.55 189.33-15.04 193.71-15.53 193.95-15.82L193.95-15.82Q194.27-16.19 194.27-17.07L194.27-17.07Q194.27-17.33 194.25-17.63L194.25-17.63Q193.93-21.09 189.36-21.12L189.36-21.12Q187.68-21.12 185.68-20.57 183.67-20.02 182.99-20.02ZM208.16-13.33Q206.08-15.11 206.08-18.03 206.08-20.95 208.54-22.85 210.99-24.76 215.04-24.76L215.04-24.76 215.65-24.76Q217.9-24.76 219.61-24.12L219.61-24.12Q222.27-23.12 222.27-21.92L222.27-21.92Q222.27-20.17 220.49-20.17L220.49-20.17Q220.32-20.17 218.42-20.62 216.53-21.07 214.97-21.07 213.41-21.07 212.16-20.31 210.92-19.56 210.92-18.12 210.92-16.67 212.46-15.75L212.46-15.75Q213.38-15.19 216.62-14.09 219.85-12.99 221.46-11.65L221.46-11.65Q223.56-9.91 223.56-7.2L223.56-7.2 223.56-6.62Q223.56-3.66 220.99-1.71 218.41 0.24 214.7 0.24L214.7 0.24 214.07 0.24Q210.89 0.24 208.38-0.89 205.86-2.03 205.86-3.34L205.86-3.34Q205.86-5.2 207.74-5.2L207.74-5.2Q208.16-5.2 210.27-4.48 212.38-3.76 214.31-3.76 216.24-3.76 217.46-4.54 218.68-5.32 218.68-6.77 218.68-8.23 217.12-9.2L217.12-9.2Q216.17-9.81 212.83-11 209.5-12.18 208.16-13.33L208.16-13.33ZM232.79-12.35L232.79-12.35 232.79-11.01Q232.79-7.37 234.29-5.33 235.79-3.3 238.31-3.3L238.31-3.3 238.55-3.32Q241.21-3.32 242.75-5.63 244.29-7.93 244.29-12.21L244.29-12.21 244.29-13.28Q244.29-16.6 242.97-18.8 241.65-21 239.28-21L239.28-21 238.58-21Q236.04-21 234.41-18.63 232.79-16.26 232.79-12.35ZM249.49-12.77L249.49-12.77 249.49-11.99Q249.49-6.42 246.46-2.98L246.46-2.98Q245.02-1.32 242.78-0.46 240.53 0.39 238.26 0.39L238.26 0.39 237.45 0.39Q233.13 0.39 230.4-3.1L230.4-3.1Q228.2-5.91 228.2-10.99L228.2-10.99 228.2-12.21Q228.25-12.99 228.25-14.26L228.25-14.26Q228.25-15.45 229.01-17.63L229.01-17.63Q230.5-21.95 234.13-23.56L234.13-23.56Q236.33-24.54 238.43-24.54L238.43-24.54 239.21-24.54Q244.07-24.54 247.05-21.07L247.05-21.07Q249.49-18.24 249.49-12.77ZM258.96-12.35L258.96-12.35 258.96-11.01Q258.96-7.37 260.46-5.33 261.96-3.3 264.48-3.3L264.48-3.3 264.72-3.32Q267.38-3.32 268.92-5.63 270.46-7.93 270.46-12.21L270.46-12.21 270.46-13.28Q270.46-16.6 269.14-18.8 267.82-21 265.45-21L265.45-21 264.75-21Q262.21-21 260.58-18.63 258.96-16.26 258.96-12.35ZM275.66-12.77L275.66-12.77 275.66-11.99Q275.66-6.42 272.63-2.98L272.63-2.98Q271.19-1.32 268.94-0.46 266.7 0.39 264.43 0.39L264.43 0.39 263.62 0.39Q259.3 0.39 256.57-3.1L256.57-3.1Q254.37-5.91 254.37-10.99L254.37-10.99 254.37-12.21Q254.42-12.99 254.42-14.26L254.42-14.26Q254.42-15.45 255.18-17.63L255.18-17.63Q256.66-21.95 260.3-23.56L260.3-23.56Q262.5-24.54 264.6-24.54L264.6-24.54 265.38-24.54Q270.24-24.54 273.22-21.07L273.22-21.07Q275.66-18.24 275.66-12.77ZM283.18-13.33Q281.1-15.11 281.1-18.03 281.1-20.95 283.55-22.85 286.01-24.76 290.06-24.76L290.06-24.76 290.67-24.76Q292.92-24.76 294.63-24.12L294.63-24.12Q297.29-23.12 297.29-21.92L297.29-21.92Q297.29-20.17 295.5-20.17L295.5-20.17Q295.33-20.17 293.44-20.62 291.55-21.07 289.99-21.07 288.42-21.07 287.18-20.31 285.93-19.56 285.93-18.12 285.93-16.67 287.47-15.75L287.47-15.75Q288.4-15.19 291.64-14.09 294.87-12.99 296.48-11.65L296.48-11.65Q298.58-9.91 298.58-7.2L298.58-7.2 298.58-6.62Q298.58-3.66 296.01-1.71 293.43 0.24 289.72 0.24L289.72 0.24 289.08 0.24Q285.91 0.24 283.4-0.89 280.88-2.03 280.88-3.34L280.88-3.34Q280.88-5.2 282.76-5.2L282.76-5.2Q283.18-5.2 285.29-4.48 287.4-3.76 289.33-3.76 291.26-3.76 292.48-4.54 293.7-5.32 293.7-6.77 293.7-8.23 292.14-9.2L292.14-9.2Q291.18-9.81 287.85-11 284.52-12.18 283.18-13.33L283.18-13.33Z" opacity="1" transform="matrix(1,0,0,1,0,0)" fill="#e8c2d3" class="wordmark-text-0" data-fill-palette-color="primary" id="text-0"></path></svg></g></svg></g><g transform="matrix(1,0,0,1,0,47.181332586051994)"><svg viewBox="0 0 244.43135999999998 23.58921582344462" height="23.58921582344462" width="244.43135999999998"><g transform="matrix(1,0,0,1,0,0)"><svg width="244.43135999999998" viewBox="-1.4 -43.65 602.55 58.15" height="23.58921582344462" data-palette-color="#e8c2d3"><path d="M27.7-17L27.7-17 29.15-14.05Q27.95-13.45 26.15-12.98 24.35-12.5 21.95-12.5L21.95-12.5Q20.45-12.5 18.88-12.73 17.3-12.95 15.83-13.43 14.35-13.9 13.1-14.65L13.1-14.65Q13.3-15.05 13.55-15.43 13.8-15.8 14.1-16.18 14.4-16.55 14.65-16.8L14.65-16.8Q16.15-16.2 17.85-15.93 19.55-15.65 21.2-15.65L21.2-15.65Q23.2-15.65 24.83-16.03 26.45-16.4 27.7-17ZM29.35-27.6L29.35-27.6 0-27.6Q-0.7-27.6-1.05-27.98-1.4-28.35-1.4-29.1L-1.4-29.1Q-1.4-29.4-1.35-29.78-1.3-30.15-1.2-30.5L-1.2-30.5 28.15-30.5Q29.55-30.5 29.55-29L29.55-29Q29.55-28.7 29.5-28.35 29.45-28 29.35-27.6ZM4.9-12.35L4.9-12.35Q3.65-12.45 3.03-12.93 2.4-13.4 2.4-14.3L2.4-14.3Q2.4-14.7 2.58-15.18 2.75-15.65 3-16L3-16Q3.55-15.85 4.33-15.73 5.1-15.6 6.05-15.6L6.05-15.6Q9.6-15.6 11.43-17.18 13.25-18.75 13.25-21.65L13.25-21.65Q13.25-23.75 12.4-25.5 11.55-27.25 10.55-28.3L10.55-28.3 13.95-28.7Q15.15-27.45 16.05-25.7 16.95-23.95 16.95-21.45L16.95-21.45Q16.95-18.85 15.8-16.9 14.65-14.95 12.65-13.83 10.65-12.7 8.1-12.5L8.1-12.5Q9.45-8.85 12.03-6.03 14.6-3.2 17.5-1.55L17.5-1.55Q17.5-0.6 17.03 0 16.55 0.6 15.5 0.6L15.5 0.6Q14.1 0.6 12.53-0.48 10.95-1.55 9.45-3.4 7.95-5.25 6.75-7.58 5.55-9.9 4.9-12.35ZM27.3-1.15L27.3-28.4 30.85-28.4 30.85 0.35Q30.55 0.4 30.18 0.48 29.8 0.55 29.4 0.55L29.4 0.55Q28.35 0.55 27.83 0.13 27.3-0.3 27.3-1.15L27.3-1.15ZM36.35-27.6L36.35-27.6 22.7-27.6Q22-27.6 21.65-27.98 21.3-28.35 21.3-29.1L21.3-29.1Q21.3-29.4 21.35-29.78 21.4-30.15 21.5-30.5L21.5-30.5 35.15-30.5Q36.55-30.5 36.55-29L36.55-29Q36.55-28.7 36.5-28.35 36.45-28 36.35-27.6ZM53.56-5.15L53.56-5.15Q53.56-2.5 55.66-0.98 57.76 0.55 61.71 0.55L61.71 0.55Q63.26 0.55 64.26 0.4 65.26 0.25 66.06 0.05L66.06 0.05Q66.26 0.25 66.41 0.68 66.56 1.1 66.56 1.5L66.56 1.5Q66.56 2.5 65.44 3.1 64.31 3.7 61.66 3.7L61.66 3.7Q58.46 3.7 55.76 2.7 53.06 1.7 51.44-0.33 49.81-2.35 49.81-5.4L49.81-5.4Q49.81-7.85 51.21-9.75 52.61-11.65 55.01-12.75 57.41-13.85 60.31-13.85L60.31-13.85Q63.51-13.85 65.84-12.75 68.16-11.65 69.46-9.88 70.76-8.1 70.76-5.95L70.76-5.95Q70.76-4.95 70.29-4.3 69.81-3.65 68.66-3.65L68.66-3.65Q67.71-3.65 67.06-4.2L67.06-4.2Q67.11-4.45 67.14-4.67 67.16-4.9 67.16-5.35L67.16-5.35Q67.16-8 65.26-9.38 63.36-10.75 60.56-10.75L60.56-10.75Q57.31-10.75 55.44-9.18 53.56-7.6 53.56-5.15ZM73.86-27.6L73.86-27.6 46.66-27.6Q45.96-27.6 45.61-27.98 45.26-28.35 45.26-29.1L45.26-29.1Q45.26-29.4 45.31-29.78 45.36-30.15 45.46-30.5L45.46-30.5 72.66-30.5Q74.06-30.5 74.06-29L74.06-29Q74.06-28.7 74.01-28.35 73.96-28 73.86-27.6ZM55.81-12.75L55.81-12.75 53.41-11.05Q51.91-11.7 50.86-13.25 49.81-14.8 49.81-16.5L49.81-16.5Q49.81-19.6 51.81-21.15 53.81-22.7 57.01-22.7L57.01-22.7 64.71-22.7 64.71-28.2 68.26-28.2 68.26-21.2Q68.26-20.25 67.81-19.83 67.36-19.4 66.21-19.4L66.21-19.4 57.51-19.4Q55.41-19.4 54.46-18.6 53.51-17.8 53.51-16.2L53.51-16.2Q53.51-15.25 54.09-14.33 54.66-13.4 55.81-12.75ZM92.33-33.4L92.33-30.3 88.78-30.3 88.78-33.4Q88.78-36.9 87.48-38.65 86.18-40.4 83.98-40.4L83.98-40.4Q82.58-40.4 81.23-39.4 79.88-38.4 79.88-35.9L79.88-35.9 79.88-34.3Q79.88-34.3 79.4-34.13 78.93-33.95 78.28-33.95L78.28-33.95Q77.33-33.95 76.73-34.45 76.13-34.95 76.13-36.25L76.13-36.25Q76.13-38.6 77.23-40.25 78.33-41.9 80.13-42.78 81.93-43.65 83.98-43.65L83.98-43.65Q87.68-43.65 90-41.18 92.33-38.7 92.33-33.4L92.33-33.4ZM88.78-1.15L88.78-28.4 92.33-28.4 92.33 0.35Q92.03 0.4 91.65 0.48 91.28 0.55 90.88 0.55L90.88 0.55Q89.83 0.55 89.3 0.13 88.78-0.3 88.78-1.15L88.78-1.15ZM97.83-27.6L97.83-27.6 84.18-27.6Q83.48-27.6 83.13-27.98 82.78-28.35 82.78-29.1L82.78-29.1Q82.78-29.4 82.83-29.78 82.88-30.15 82.98-30.5L82.98-30.5 96.63-30.5Q98.03-30.5 98.03-29L98.03-29Q98.03-28.7 97.98-28.35 97.93-28 97.83-27.6ZM148.31-11.45L148.31-11.45 149.61-9.05Q149.21-8.2 148.21-7.2 147.21-6.2 145.58-5.53 143.96-4.85 141.61-4.85L141.61-4.85Q139.21-4.85 137.08-5.85 134.96-6.85 133.61-8.83 132.26-10.8 132.26-13.75L132.26-13.75Q132.26-16.35 133.46-18.25 134.66-20.15 136.66-21.18 138.66-22.2 141.06-22.2L141.06-22.2Q143.26-22.2 144.18-21.58 145.11-20.95 145.11-20.05L145.11-20.05Q145.11-19.55 144.93-19.23 144.76-18.9 144.51-18.6L144.51-18.6Q143.86-18.85 143.31-18.98 142.76-19.1 141.96-19.1L141.96-19.1Q139.26-19.1 137.63-17.65 136.01-16.2 136.01-13.55L136.01-13.55Q136.01-11.1 137.63-9.55 139.26-8 142.01-8L142.01-8Q144.01-8 145.31-8.63 146.61-9.25 147.33-10.08 148.06-10.9 148.31-11.45ZM150.91-15.2L150.91-15.2 149.36-17.1Q150.51-19.15 152.53-20.63 154.56-22.1 157.91-22.1L157.91-22.1Q160.61-22.1 162.63-20.98 164.66-19.85 165.78-17.9 166.91-15.95 166.91-13.45L166.91-13.45Q166.91-10.7 165.71-8.72 164.51-6.75 162.51-5.7 160.51-4.65 158.11-4.65L158.11-4.65Q156.51-4.65 155.68-5.13 154.86-5.6 154.86-6.6L154.86-6.6Q154.86-7.1 154.98-7.43 155.11-7.75 155.21-7.95L155.21-7.95Q155.51-7.9 156.16-7.83 156.81-7.75 157.21-7.75L157.21-7.75Q159.71-7.75 161.43-9.2 163.16-10.65 163.16-13.5L163.16-13.5Q163.16-15.9 161.56-17.43 159.96-18.95 157.21-18.95L157.21-18.95Q155.21-18.95 153.46-17.78 151.71-16.6 150.91-15.2ZM169.71-27.6L169.71-27.6 129.66-27.6Q128.96-27.6 128.61-27.98 128.26-28.35 128.26-29.1L128.26-29.1Q128.26-29.4 128.31-29.78 128.36-30.15 128.46-30.5L128.46-30.5 168.51-30.5Q169.91-30.5 169.91-29L169.91-29Q169.91-28.7 169.86-28.35 169.81-28 169.71-27.6ZM148.01-1.15L148.01-28.4 151.56-28.4 151.56 0.35Q151.26 0.4 150.88 0.48 150.51 0.55 150.11 0.55L150.11 0.55Q149.06 0.55 148.53 0.13 148.01-0.3 148.01-1.15L148.01-1.15ZM188.17-33.4L188.17-30.3 184.62-30.3 184.62-33.4Q184.62-36.9 183.32-38.65 182.02-40.4 179.82-40.4L179.82-40.4Q178.42-40.4 177.07-39.4 175.72-38.4 175.72-35.9L175.72-35.9 175.72-34.3Q175.72-34.3 175.24-34.13 174.77-33.95 174.12-33.95L174.12-33.95Q173.17-33.95 172.57-34.45 171.97-34.95 171.97-36.25L171.97-36.25Q171.97-38.6 173.07-40.25 174.17-41.9 175.97-42.78 177.77-43.65 179.82-43.65L179.82-43.65Q183.52-43.65 185.84-41.18 188.17-38.7 188.17-33.4L188.17-33.4ZM184.62-1.15L184.62-28.4 188.17-28.4 188.17 0.35Q187.87 0.4 187.49 0.48 187.12 0.55 186.72 0.55L186.72 0.55Q185.67 0.55 185.14 0.13 184.62-0.3 184.62-1.15L184.62-1.15ZM193.67-27.6L193.67-27.6 180.02-27.6Q179.32-27.6 178.97-27.98 178.62-28.35 178.62-29.1L178.62-29.1Q178.62-29.4 178.67-29.78 178.72-30.15 178.82-30.5L178.82-30.5 192.47-30.5Q193.87-30.5 193.87-29L193.87-29Q193.87-28.7 193.82-28.35 193.77-28 193.67-27.6ZM213.93-15.2L227.23-15.2 227.23-12.05 213.83-12.05Q213.73-10.35 212.81-9.22 211.88-8.1 209.93-8.1L209.93-8.1Q208.03-8.1 207.16-8.97 206.28-9.85 206.28-11.15L206.28-11.15Q206.28-11.7 206.43-12.3 206.58-12.9 206.78-13.25L206.78-13.25 208.58-13.25Q210.38-13.25 210.38-15L210.38-15 210.38-27.9 213.93-27.9 213.93-15.2ZM227.38-27.6L227.38-27.6 203.98-27.6Q203.28-27.6 202.93-27.98 202.58-28.35 202.58-29.1L202.58-29.1Q202.58-29.4 202.63-29.78 202.68-30.15 202.78-30.5L202.78-30.5 226.18-30.5Q227.58-30.5 227.58-29L227.58-29Q227.58-28.7 227.53-28.35 227.48-28 227.38-27.6ZM225.33-1.15L225.33-28.4 228.88-28.4 228.88 0.35Q228.58 0.4 228.21 0.48 227.83 0.55 227.43 0.55L227.43 0.55Q226.38 0.55 225.86 0.13 225.33-0.3 225.33-1.15L225.33-1.15ZM234.38-27.6L234.38-27.6 220.73-27.6Q220.03-27.6 219.68-27.98 219.33-28.35 219.33-29.1L219.33-29.1Q219.33-29.4 219.38-29.78 219.43-30.15 219.53-30.5L219.53-30.5 233.18-30.5Q234.58-30.5 234.58-29L234.58-29Q234.58-28.7 234.53-28.35 234.48-28 234.38-27.6ZM266.1-19.9L266.1-19.9 266-16.65Q264.45-17.05 262.9-17.28 261.35-17.5 259.65-17.5L259.65-17.5Q256-17.5 253.72-15.73 251.45-13.95 251.45-10.45L251.45-10.45Q251.45-7.25 252.92-4.98 254.4-2.7 256.25-1.1L256.25-1.1Q256.05-0.25 255.47 0.15 254.9 0.55 254.15 0.55L254.15 0.55Q253.3 0.55 252.2-0.3 251.1-1.15 250.07-2.65 249.05-4.15 248.37-6.2 247.7-8.25 247.7-10.65L247.7-10.65Q247.7-13.95 249.2-16.2 250.7-18.45 253.3-19.6 255.9-20.75 259.1-20.75L259.1-20.75Q261.15-20.75 263-20.5 264.85-20.25 266.1-19.9ZM267.5-27.6L267.5-27.6 244.7-27.6Q244-27.6 243.65-27.98 243.3-28.35 243.3-29.1L243.3-29.1Q243.3-29.4 243.35-29.78 243.4-30.15 243.5-30.5L243.5-30.5 266.3-30.5Q267.7-30.5 267.7-29L267.7-29Q267.7-28.7 267.65-28.35 267.6-28 267.5-27.6ZM265.45-1.15L265.45-28.4 269-28.4 269 0.35Q268.7 0.4 268.32 0.48 267.95 0.55 267.55 0.55L267.55 0.55Q266.5 0.55 265.97 0.13 265.45-0.3 265.45-1.15L265.45-1.15ZM274.5-27.6L274.5-27.6 260.85-27.6Q260.15-27.6 259.8-27.98 259.45-28.35 259.45-29.1L259.45-29.1Q259.45-29.4 259.5-29.78 259.55-30.15 259.65-30.5L259.65-30.5 273.3-30.5Q274.7-30.5 274.7-29L274.7-29Q274.7-28.7 274.65-28.35 274.6-28 274.5-27.6ZM288.21 4.7L288.21 4.7Q287.41 6.05 286.26 6.05L286.26 6.05Q285.16 6.05 284.46 5.2L284.46 5.2Q284.91 3.9 285.49 2.13 286.06 0.35 286.56-1.5 287.06-3.35 287.31-4.7L287.31-4.7Q287.71-4.9 288.19-5.03 288.66-5.15 289.21-5.15L289.21-5.15Q290.11-5.15 290.61-4.73 291.11-4.3 291.11-3.3L291.11-3.3Q291.11-2.2 290.59-0.58 290.06 1.05 289.36 2.53 288.66 4 288.21 4.7ZM352.79-17L352.79-17 354.24-14.05Q353.04-13.45 351.24-12.98 349.44-12.5 347.04-12.5L347.04-12.5Q345.54-12.5 343.96-12.73 342.39-12.95 340.91-13.43 339.44-13.9 338.19-14.65L338.19-14.65Q338.39-15.05 338.64-15.43 338.89-15.8 339.19-16.18 339.49-16.55 339.74-16.8L339.74-16.8Q341.24-16.2 342.94-15.93 344.64-15.65 346.29-15.65L346.29-15.65Q348.29-15.65 349.91-16.03 351.54-16.4 352.79-17ZM354.44-27.6L354.44-27.6 325.09-27.6Q324.39-27.6 324.04-27.98 323.69-28.35 323.69-29.1L323.69-29.1Q323.69-29.4 323.74-29.78 323.79-30.15 323.89-30.5L323.89-30.5 353.24-30.5Q354.64-30.5 354.64-29L354.64-29Q354.64-28.7 354.59-28.35 354.54-28 354.44-27.6ZM329.99-12.35L329.99-12.35Q328.74-12.45 328.11-12.93 327.49-13.4 327.49-14.3L327.49-14.3Q327.49-14.7 327.66-15.18 327.84-15.65 328.09-16L328.09-16Q328.64-15.85 329.41-15.73 330.19-15.6 331.14-15.6L331.14-15.6Q334.69-15.6 336.51-17.18 338.34-18.75 338.34-21.65L338.34-21.65Q338.34-23.75 337.49-25.5 336.64-27.25 335.64-28.3L335.64-28.3 339.04-28.7Q340.24-27.45 341.14-25.7 342.04-23.95 342.04-21.45L342.04-21.45Q342.04-18.85 340.89-16.9 339.74-14.95 337.74-13.83 335.74-12.7 333.19-12.5L333.19-12.5Q334.54-8.85 337.11-6.03 339.69-3.2 342.59-1.55L342.59-1.55Q342.59-0.6 342.11 0 341.64 0.6 340.59 0.6L340.59 0.6Q339.19 0.6 337.61-0.48 336.04-1.55 334.54-3.4 333.04-5.25 331.84-7.58 330.64-9.9 329.99-12.35ZM352.39-1.15L352.39-28.4 355.94-28.4 355.94 0.35Q355.64 0.4 355.26 0.48 354.89 0.55 354.49 0.55L354.49 0.55Q353.44 0.55 352.91 0.13 352.39-0.3 352.39-1.15L352.39-1.15ZM361.44-27.6L361.44-27.6 347.79-27.6Q347.09-27.6 346.74-27.98 346.39-28.35 346.39-29.1L346.39-29.1Q346.39-29.4 346.44-29.78 346.49-30.15 346.59-30.5L346.59-30.5 360.24-30.5Q361.64-30.5 361.64-29L361.64-29Q361.64-28.7 361.59-28.35 361.54-28 361.44-27.6ZM378.65-5.15L378.65-5.15Q378.65-2.5 380.75-0.98 382.85 0.55 386.8 0.55L386.8 0.55Q388.35 0.55 389.35 0.4 390.35 0.25 391.15 0.05L391.15 0.05Q391.35 0.25 391.5 0.68 391.65 1.1 391.65 1.5L391.65 1.5Q391.65 2.5 390.53 3.1 389.4 3.7 386.75 3.7L386.75 3.7Q383.55 3.7 380.85 2.7 378.15 1.7 376.53-0.33 374.9-2.35 374.9-5.4L374.9-5.4Q374.9-7.85 376.3-9.75 377.7-11.65 380.1-12.75 382.5-13.85 385.4-13.85L385.4-13.85Q388.6-13.85 390.93-12.75 393.25-11.65 394.55-9.88 395.85-8.1 395.85-5.95L395.85-5.95Q395.85-4.95 395.38-4.3 394.9-3.65 393.75-3.65L393.75-3.65Q392.8-3.65 392.15-4.2L392.15-4.2Q392.2-4.45 392.23-4.67 392.25-4.9 392.25-5.35L392.25-5.35Q392.25-8 390.35-9.38 388.45-10.75 385.65-10.75L385.65-10.75Q382.4-10.75 380.53-9.18 378.65-7.6 378.65-5.15ZM398.95-27.6L398.95-27.6 371.75-27.6Q371.05-27.6 370.7-27.98 370.35-28.35 370.35-29.1L370.35-29.1Q370.35-29.4 370.4-29.78 370.45-30.15 370.55-30.5L370.55-30.5 397.75-30.5Q399.15-30.5 399.15-29L399.15-29Q399.15-28.7 399.1-28.35 399.05-28 398.95-27.6ZM380.9-12.75L380.9-12.75 378.5-11.05Q377-11.7 375.95-13.25 374.9-14.8 374.9-16.5L374.9-16.5Q374.9-19.6 376.9-21.15 378.9-22.7 382.1-22.7L382.1-22.7 389.8-22.7 389.8-28.2 393.35-28.2 393.35-21.2Q393.35-20.25 392.9-19.83 392.45-19.4 391.3-19.4L391.3-19.4 382.6-19.4Q380.5-19.4 379.55-18.6 378.6-17.8 378.6-16.2L378.6-16.2Q378.6-15.25 379.18-14.33 379.75-13.4 380.9-12.75ZM417.42-33.4L417.42-30.3 413.87-30.3 413.87-33.4Q413.87-36.9 412.57-38.65 411.27-40.4 409.07-40.4L409.07-40.4Q407.67-40.4 406.32-39.4 404.97-38.4 404.97-35.9L404.97-35.9 404.97-34.3Q404.97-34.3 404.49-34.13 404.02-33.95 403.37-33.95L403.37-33.95Q402.42-33.95 401.82-34.45 401.22-34.95 401.22-36.25L401.22-36.25Q401.22-38.6 402.32-40.25 403.42-41.9 405.22-42.78 407.02-43.65 409.07-43.65L409.07-43.65Q412.77-43.65 415.09-41.18 417.42-38.7 417.42-33.4L417.42-33.4ZM413.87-1.15L413.87-28.4 417.42-28.4 417.42 0.35Q417.12 0.4 416.74 0.48 416.37 0.55 415.97 0.55L415.97 0.55Q414.92 0.55 414.39 0.13 413.87-0.3 413.87-1.15L413.87-1.15ZM422.92-27.6L422.92-27.6 409.27-27.6Q408.57-27.6 408.22-27.98 407.87-28.35 407.87-29.1L407.87-29.1Q407.87-29.4 407.92-29.78 407.97-30.15 408.07-30.5L408.07-30.5 421.72-30.5Q423.12-30.5 423.12-29L423.12-29Q423.12-28.7 423.07-28.35 423.02-28 422.92-27.6ZM456.44-20.95L456.44-20.95 472.39-20.95Q473.09-20.95 473.47-20.58 473.84-20.2 473.84-19.3L473.84-19.3Q473.84-18.8 473.74-18.43 473.64-18.05 473.44-17.75L473.44-17.75 466.79-17.75 465.39-17.8 457.49-17.8Q456.89-17.8 456.52-18.25 456.14-18.7 456.14-19.45L456.14-19.45Q456.14-19.85 456.22-20.25 456.29-20.65 456.44-20.95ZM464.44-18.85L464.44-18.85Q464.79-18.85 465.29-18.68 465.79-18.5 466.27-18.28 466.74-18.05 467.07-17.9 467.39-17.75 467.39-17.75L467.39-17.75Q465.84-17.25 464.92-15.95 463.99-14.65 463.99-12.9L463.99-12.9Q463.99-10.75 465.77-9.35 467.54-7.95 470.84-7.95L470.84-7.95Q473.14-7.95 475.27-8.83 477.39-9.7 479.09-11.4L479.09-11.4 480.29-8.85Q478.49-6.95 476.02-5.88 473.54-4.8 470.29-4.8L470.29-4.8Q467.54-4.8 465.27-5.75 462.99-6.7 461.64-8.47 460.29-10.25 460.29-12.65L460.29-12.65Q460.29-14.6 460.97-15.85 461.64-17.1 462.62-17.82 463.59-18.55 464.44-18.85ZM480.44-27.6L480.44-27.6 454.74-27.6Q454.04-27.6 453.69-27.98 453.34-28.35 453.34-29.1L453.34-29.1Q453.34-29.4 453.39-29.78 453.44-30.15 453.54-30.5L453.54-30.5 479.24-30.5Q480.64-30.5 480.64-29L480.64-29Q480.64-28.7 480.59-28.35 480.54-28 480.44-27.6ZM478.39-1.15L478.39-28.4 481.94-28.4 481.94 0.35Q481.64 0.4 481.27 0.48 480.89 0.55 480.49 0.55L480.49 0.55Q479.44 0.55 478.92 0.13 478.39-0.3 478.39-1.15L478.39-1.15ZM487.44-27.6L487.44-27.6 473.79-27.6Q473.09-27.6 472.74-27.98 472.39-28.35 472.39-29.1L472.39-29.1Q472.39-29.4 472.44-29.78 472.49-30.15 472.59-30.5L472.59-30.5 486.24-30.5Q487.64-30.5 487.64-29L487.64-29Q487.64-28.7 487.59-28.35 487.54-28 487.44-27.6ZM490.91-0.5L490.91-0.5Q493.11-0.5 494.91 0.38 496.71 1.25 497.76 2.83 498.81 4.4 498.81 6.6L498.81 6.6Q498.81 10.15 496.48 12.33 494.16 14.5 489.71 14.5L489.71 14.5Q487.11 14.5 484.86 13.85 482.61 13.2 480.93 12.18 479.26 11.15 478.33 10.08 477.41 9 477.41 8.1L477.41 8.1Q477.41 7.15 478.01 6.65 478.61 6.15 479.31 6.1L479.31 6.1Q480.81 8.4 483.56 9.83 486.31 11.25 489.56 11.25L489.56 11.25Q492.46 11.25 493.76 9.85 495.06 8.45 495.06 6.6L495.06 6.6Q495.06 5.05 493.98 3.9 492.91 2.75 490.91 2.75L490.91 2.75Q489.51 2.75 488.43 3.45 487.36 4.15 486.71 5.3L486.71 5.3Q485.71 5.1 485.11 4.55 484.51 4 484.51 3.3L484.51 3.3Q484.51 2.4 485.31 1.53 486.11 0.65 487.56 0.08 489.01-0.5 490.91-0.5ZM516.42-17.6L516.42-17.6 529.62-17.6 529.62-14.4 518.97-14.4Q517.92-14.4 517.32-13.88 516.72-13.35 516.72-12.1L516.72-12.1 516.72-9.95Q516.37-9.75 515.9-9.6 515.42-9.45 514.87-9.45L514.87-9.45Q513.47-9.45 512.42-10.45 511.37-11.45 511.37-13.6L511.37-13.6Q511.37-15.55 512.67-16.57 513.97-17.6 516.42-17.6ZM530.57-27.6L530.57-27.6 509.27-27.6Q508.57-27.6 508.22-27.98 507.87-28.35 507.87-29.1L507.87-29.1Q507.87-29.4 507.92-29.78 507.97-30.15 508.07-30.5L508.07-30.5 529.37-30.5Q530.77-30.5 530.77-29L530.77-29Q530.77-28.7 530.72-28.35 530.67-28 530.57-27.6ZM528.52-1.15L528.52-28.4 532.07-28.4 532.07 0.35Q531.77 0.4 531.4 0.48 531.02 0.55 530.62 0.55L530.62 0.55Q529.57 0.55 529.05 0.13 528.52-0.3 528.52-1.15L528.52-1.15ZM537.57-27.6L537.57-27.6 523.92-27.6Q523.22-27.6 522.87-27.98 522.52-28.35 522.52-29.1L522.52-29.1Q522.52-29.4 522.57-29.78 522.62-30.15 522.72-30.5L522.72-30.5 536.37-30.5Q537.77-30.5 537.77-29L537.77-29Q537.77-28.7 537.72-28.35 537.67-28 537.57-27.6ZM552.49-1.15L552.49-28.4 556.04-28.4 556.04 0.35Q555.74 0.4 555.36 0.48 554.99 0.55 554.59 0.55L554.59 0.55Q553.54 0.55 553.01 0.13 552.49-0.3 552.49-1.15L552.49-1.15ZM561.54-27.6L561.54-27.6 547.89-27.6Q547.19-27.6 546.84-27.98 546.49-28.35 546.49-29.1L546.49-29.1Q546.49-29.4 546.54-29.78 546.59-30.15 546.69-30.5L546.69-30.5 560.34-30.5Q561.74-30.5 561.74-29L561.74-29Q561.74-28.7 561.69-28.35 561.64-28 561.54-27.6ZM591.95-11.05L591.95-11.05 593.6-8.75Q592.75-7.55 591.55-6.58 590.35-5.6 588.68-5.05 587-4.5 584.8-4.5L584.8-4.5Q582.05-4.5 579.7-5.48 577.35-6.45 575.9-8.45 574.45-10.45 574.45-13.5L574.45-13.5Q574.45-16.2 575.73-18.18 577-20.15 579.15-21.23 581.3-22.3 583.9-22.3L583.9-22.3Q586.5-22.3 587.65-21.65 588.8-21 588.8-20.05L588.8-20.05Q588.8-19.65 588.68-19.28 588.55-18.9 588.3-18.6L588.3-18.6Q587.55-18.85 586.55-19 585.55-19.15 584.7-19.15L584.7-19.15Q581.4-19.15 579.8-17.45 578.2-15.75 578.2-13.35L578.2-13.35Q578.2-10.7 580.03-9.18 581.85-7.65 585.1-7.65L585.1-7.65Q587.6-7.65 589.45-8.8 591.3-9.95 591.95-11.05ZM593.95-27.6L593.95-27.6 571.85-27.6Q571.15-27.6 570.8-27.98 570.45-28.35 570.45-29.1L570.45-29.1Q570.45-29.4 570.5-29.78 570.55-30.15 570.65-30.5L570.65-30.5 592.75-30.5Q594.15-30.5 594.15-29L594.15-29Q594.15-28.7 594.1-28.35 594.05-28 593.95-27.6ZM591.9-1.15L591.9-28.4 595.45-28.4 595.45 0.35Q595.15 0.4 594.78 0.48 594.4 0.55 594 0.55L594 0.55Q592.95 0.55 592.43 0.13 591.9-0.3 591.9-1.15L591.9-1.15ZM600.95-27.6L600.95-27.6 587.3-27.6Q586.6-27.6 586.25-27.98 585.9-28.35 585.9-29.1L585.9-29.1Q585.9-29.4 585.95-29.78 586-30.15 586.1-30.5L586.1-30.5 599.75-30.5Q601.15-30.5 601.15-29L601.15-29Q601.15-28.7 601.1-28.35 601.05-28 600.95-27.6Z" opacity="1" transform="matrix(1,0,0,1,0,0)" fill="#e8c2d3" class="slogan-text-1" data-fill-palette-color="secondary" id="text-1"></path></svg></g></svg></g></svg></g></svg></g></svg></g></svg></g></svg></g><path d="M185.688 82.215L185.688 19.555 393.778 19.555 393.778 227.645 185.688 227.645 185.688 164.985 189.13 164.985 189.13 224.203 390.336 224.203 390.336 22.997 189.13 22.997 189.13 82.215Z" fill="#e8c2d3" stroke="transparent" data-fill-palette-color="tertiary"></path></svg></g><defs></defs></svg><rect width="395.52" height="247.2" fill="none" stroke="none" visibility="hidden"></rect></g></svg></g></svg>